<svg width="1600" height="420" viewBox="0 0 1600 420" fill="none" xmlns="http://www.w3.org/2000/svg">
  <defs>
    <linearGradient id="bg" x1="0" y1="0" x2="1600" y2="420" gradientUnits="userSpaceOnUse">
      <stop offset="0" stop-color="#03050A"/>
      <stop offset="0.48" stop-color="#070B14"/>
      <stop offset="1" stop-color="#0B1220"/>
    </linearGradient>

    <radialGradient id="glowA" cx="0" cy="0" r="1" gradientUnits="userSpaceOnUse"
      gradientTransform="translate(260 80) rotate(12) scale(360 210)">
      <stop stop-color="#38BDF8" stop-opacity="0.13"/>
      <stop offset="1" stop-color="#38BDF8" stop-opacity="0"/>
    </radialGradient>

    <radialGradient id="glowB" cx="0" cy="0" r="1" gradientUnits="userSpaceOnUse"
      gradientTransform="translate(1340 100) rotate(-10) scale(380 220)">
      <stop stop-color="#6366F1" stop-opacity="0.12"/>
      <stop offset="1" stop-color="#6366F1" stop-opacity="0"/>
    </radialGradient>

    <linearGradient id="accent" x1="0" y1="0" x2="1320" y2="0" gradientUnits="userSpaceOnUse">
      <stop stop-color="#67E8F9"/>
      <stop offset="0.5" stop-color="#60A5FA"/>
      <stop offset="1" stop-color="#818CF8"/>
    </linearGradient>

    <pattern id="grid" width="42" height="42" patternUnits="userSpaceOnUse">
      <path d="M 42 0 L 0 0 0 42" fill="none" stroke="#FFFFFF" stroke-opacity="0.05" stroke-width="1"/>
    </pattern>
  </defs>

  <rect width="1600" height="420" fill="url(#bg)"/>
  <rect width="1600" height="420" fill="url(#grid)"/>
  <rect width="1600" height="420" fill="url(#glowA)"/>
  <rect width="1600" height="420" fill="url(#glowB)"/>

  <path d="M0 338 C180 280, 310 374, 500 335 C700 294, 830 352, 1026 326 C1236 298, 1360 320, 1600 262"
    stroke="url(#accent)" stroke-width="3.5" opacity="0.78"/>
  <path d="M0 362 C200 320, 332 386, 540 356 C744 327, 880 360, 1072 344 C1268 328, 1428 334, 1600 308"
    stroke="#94A3B8" stroke-width="1.6" opacity="0.18"/>

  <g opacity="0.6">
    <circle cx="1120" cy="126" r="3.2" fill="#7DD3FC"/>
    <circle cx="1180" cy="160" r="3.2" fill="#7DD3FC"/>
    <circle cx="1240" cy="118" r="3.2" fill="#A5B4FC"/>
    <circle cx="1302" cy="152" r="3.2" fill="#7DD3FC"/>
    <circle cx="1360" cy="116" r="3.2" fill="#A5B4FC"/>
    <line x1="1120" y1="126" x2="1180" y2="160" stroke="#7DD3FC" stroke-opacity="0.5"/>
    <line x1="1180" y1="160" x2="1240" y2="118" stroke="#A5B4FC" stroke-opacity="0.4"/>
    <line x1="1240" y1="118" x2="1302" y2="152" stroke="#7DD3FC" stroke-opacity="0.5"/>
    <line x1="1302" y1="152" x2="1360" y2="116" stroke="#A5B4FC" stroke-opacity="0.4"/>
  </g>

  <rect x="102" y="98" width="6" height="212" rx="3" fill="url(#accent)"/>

  <text x="138" y="156" fill="#F8FAFC" font-family="Arial, Helvetica, sans-serif" font-size="56" font-weight="700">Felipe Campello Lima</text>
  <text x="140" y="206" fill="#93C5FD" font-family="Arial, Helvetica, sans-serif" font-size="24" font-weight="700">Software Engineer • Backend • Cloud • Distributed Systems</text>
  <text x="140" y="246" fill="#CBD5E1" font-family="Arial, Helvetica, sans-serif" font-size="21" font-weight="500">TypeScript • Python • APIs • Microservices • Observability • Scalable Architecture</text>

  <g transform="translate(140,286)">
    <rect x="0" y="0" width="170" height="34" rx="17" fill="#0F172A" stroke="#1E293B"/>
    <text x="28" y="22" fill="#E2E8F0" font-family="Arial, Helvetica, sans-serif" font-size="15" font-weight="700">Node.js / TS</text>

    <rect x="184" y="0" width="132" height="34" rx="17" fill="#0F172A" stroke="#1E293B"/>
    <text x="226" y="22" fill="#E2E8F0" font-family="Arial, Helvetica, sans-serif" font-size="15" font-weight="700">Python</text>

    <rect x="330" y="0" width="146" height="34" rx="17" fill="#0F172A" stroke="#1E293B"/>
    <text x="371" y="22" fill="#E2E8F0" font-family="Arial, Helvetica, sans-serif" font-size="15" font-weight="700">Docker</text>

    <rect x="490" y="0" width="178" height="34" rx="17" fill="#0F172A" stroke="#1E293B"/>
    <text x="519" y="22" fill="#E2E8F0" font-family="Arial, Helvetica, sans-serif" font-size="15" font-weight="700">GCP / AWS</text>
  </g>

  <rect x="1454" y="34" width="104" height="30" rx="15" fill="#0F172A" stroke="#1E293B"/>
  <text x="1506" y="54" text-anchor="middle" fill="#E2E8F0" font-family="Arial, Helvetica, sans-serif" font-size="13" font-weight="700">ENGINEERING</text>

  <text x="1460" y="370" text-anchor="end" fill="#64748B" font-family="Arial, Helvetica, sans-serif" font-size="15" font-weight="600">github.com/Satsuj1n</text>
</svg>
