<svg width="1600" height="400" viewBox="0 0 1600 400" fill="none" xmlns="http://www.w3.org/2000/svg">
  <defs>
    <linearGradient id="bg" x1="0" y1="0" x2="1600" y2="400" gradientUnits="userSpaceOnUse">
      <stop stop-color="#071019"/>
      <stop offset="0.5" stop-color="#0B1F33"/>
      <stop offset="1" stop-color="#123B5A"/>
    </linearGradient>
    <linearGradient id="accent" x1="180" y1="110" x2="1020" y2="310" gradientUnits="userSpaceOnUse">
      <stop stop-color="#00E5FF"/>
      <stop offset="1" stop-color="#3B82F6"/>
    </linearGradient>
    <filter id="blur1" x="-200" y="-200" width="900" height="900" filterUnits="userSpaceOnUse">
      <feGaussianBlur stdDeviation="70"/>
    </filter>
    <filter id="blur2" x="700" y="-150" width="900" height="900" filterUnits="userSpaceOnUse">
      <feGaussianBlur stdDeviation="90"/>
    </filter>
    <pattern id="grid" width="40" height="40" patternUnits="userSpaceOnUse">
      <path d="M 40 0 L 0 0 0 40" fill="none" stroke="rgba(255,255,255,0.08)" stroke-width="1"/>
    </pattern>
  </defs>

  <rect width="1600" height="400" rx="0" fill="url(#bg)"/>
  <rect width="1600" height="400" fill="url(#grid)" opacity="0.35"/>

  <circle cx="250" cy="80" r="150" fill="#00E5FF" opacity="0.16" filter="url(#blur1)"/>
  <circle cx="1280" cy="90" r="180" fill="#3B82F6" opacity="0.18" filter="url(#blur2)"/>

  <path d="M0 320 C180 250, 260 360, 460 300 C650 245, 710 330, 900 285 C1100 238, 1220 320, 1600 250" stroke="url(#accent)" stroke-width="4" opacity="0.8"/>
  <path d="M0 345 C170 285, 290 370, 480 335 C670 300, 770 350, 980 320 C1200 290, 1320 335, 1600 295" stroke="#7DD3FC" stroke-width="2" opacity="0.45"/>

  <g opacity="0.9">
    <circle cx="1120" cy="132" r="4" fill="#67E8F9"/>
    <circle cx="1170" cy="168" r="4" fill="#67E8F9"/>
    <circle cx="1220" cy="118" r="4" fill="#67E8F9"/>
    <circle cx="1280" cy="160" r="4" fill="#67E8F9"/>
    <circle cx="1340" cy="120" r="4" fill="#67E8F9"/>
    <circle cx="1390" cy="155" r="4" fill="#67E8F9"/>
    <line x1="1120" y1="132" x2="1170" y2="168" stroke="#67E8F9" stroke-opacity="0.7"/>
    <line x1="1170" y1="168" x2="1220" y2="118" stroke="#67E8F9" stroke-opacity="0.7"/>
    <line x1="1220" y1="118" x2="1280" y2="160" stroke="#67E8F9" stroke-opacity="0.7"/>
    <line x1="1280" y1="160" x2="1340" y2="120" stroke="#67E8F9" stroke-opacity="0.7"/>
    <line x1="1340" y1="120" x2="1390" y2="155" stroke="#67E8F9" stroke-opacity="0.7"/>
  </g>

  <rect x="95" y="102" width="7" height="190" rx="3.5" fill="url(#accent)"/>
  <text x="130" y="160" fill="white" font-family="Arial, Helvetica, sans-serif" font-size="58" font-weight="700">Felipe Campello Lima</text>
  <text x="132" y="212" fill="#7DD3FC" font-family="Arial, Helvetica, sans-serif" font-size="28" font-weight="600">Full Stack Developer • Backend • Cloud • Microserviços</text>
  <text x="132" y="254" fill="#C7D2FE" font-family="Arial, Helvetica, sans-serif" font-size="22" font-weight="500">TypeScript • Python • APIs robustas • Sistemas distribuídos • Arquitetura escalável</text>

  <g transform="translate(132,292)">
    <rect x="0" y="0" width="148" height="34" rx="17" fill="rgba(255,255,255,0.08)" stroke="rgba(255,255,255,0.16)"/>
    <text x="24" y="22" fill="#E5F9FF" font-family="Arial, Helvetica, sans-serif" font-size="16" font-weight="700">Node.js</text>

    <rect x="164" y="0" width="148" height="34" rx="17" fill="rgba(255,255,255,0.08)" stroke="rgba(255,255,255,0.16)"/>
    <text x="201" y="22" fill="#E5F9FF" font-family="Arial, Helvetica, sans-serif" font-size="16" font-weight="700">Python</text>

    <rect x="328" y="0" width="162" height="34" rx="17" fill="rgba(255,255,255,0.08)" stroke="rgba(255,255,255,0.16)"/>
    <text x="360" y="22" fill="#E5F9FF" font-family="Arial, Helvetica, sans-serif" font-size="16" font-weight="700">Docker</text>

    <rect x="506" y="0" width="138" height="34" rx="17" fill="rgba(255,255,255,0.08)" stroke="rgba(255,255,255,0.16)"/>
    <text x="549" y="22" fill="#E5F9FF" font-family="Arial, Helvetica, sans-serif" font-size="16" font-weight="700">GCP</text>
  </g>

  <text x="1320" y="338" text-anchor="end" fill="rgba(255,255,255,0.55)" font-family="Arial, Helvetica, sans-serif" font-size="16" font-weight="600">github.com/Satsuj1n</text>
</svg>
